# xmcd CD database file
# Copyright (C) 1993-1998 Ti Kan
#
# Track frame offsets:
#	183
#	15195
#	29883
#	41883
#	56133
#	77908
#	92508
#	109445
#	120320
#	136983
#	156308
#	172308
#	189408
#	202558
#	219133
#	237858
#	252933
#
# Disc length: 3453 seconds
#
# Revision: 1
# Processed by: cddbd v1.4b41PL1 Copyright (c) Steve Scherf et al.
# Submitted via: CDValet v3.31 - Copyright (c) 1997 Greg Leichner
#
DISCID=e50d7b11
DTITLE=Eydie Gorm - Dj Vu After Dark
DYEAR=1900
DGENRE=
TTITLE0=Since I Fell For You
TTITLE1=Breaking Up Is Hard To Do
TTITLE2=You're Nobody Till Somebody Loves You
TTITLE3=Come In From The Rain
TTITLE4=Send In The Clowns
TTITLE5=What'll I Do
TTITLE6=God Bless The Child
TTITLE7=The First Time
TTITLE8=Round Midnight
TTITLE9=But He Was Good For Me
TTITLE10=Sabras Que Te Quiero
TTITLE11=Dime
TTITLE12=Esta Tarde Villover
TTITLE13=Eres Tu
TTITLE14=Quiereme Mucho
TTITLE15=Tomame O Dejame
TTITLE16=How About You ?
EXTD=
EXTT0=
EXTT1=
EXTT2=
EXTT3=
EXTT4=
EXTT5=
EXTT6=
EXTT7=
EXTT8=
EXTT9=
EXTT10=
EXTT11=
EXTT12=
EXTT13=
EXTT14=
EXTT15=Bonus Collector's Track
EXTT16=duet with Frank Sinatra\n
PLAYORDER=
